<svg id="Layer_1" data-name="Layer 1" xmlns="http://www.w3.org/2000/svg" viewBox="0 0 482 507.15"><defs><style>.cls-1{fill:#ff060a;}</style></defs><title>tron-trx</title><g id="tron"><path class="cls-1" d="M475.44,152.78C451.67,130.83,418.79,97.31,392,73.54l-1.58-1.11a30.33,30.33,0,0,0-8.8-4.91h0C317,55.48,16.48-.71,10.62,0A11.07,11.07,0,0,0,6,1.75L4.52,2.94A17.51,17.51,0,0,0,.4,9.59l-.4,1v6.5C33.84,111.34,167.44,420,193.74,492.41c1.59,4.91,4.6,14.26,10.23,14.74h1.26c3,0,15.85-17,15.85-17S450.56,211.9,473.78,182.26a74.25,74.25,0,0,0,7.92-11.73A19.1,19.1,0,0,0,475.44,152.78ZM280,185.19,377.9,104l57.45,52.93Zm-38-5.31L73.3,41.69,346.12,92Zm15.22,36.22,172.58-27.82L232.41,426ZM50.4,55.48,227.82,206,202.14,426.16Z"/></g></svg>